<?xml version="1.0" encoding="utf-8"?>
<!-- Generator: Adobe Illustrator 16.0.3, SVG Export Plug-In . SVG Version: 6.00 Build 0)  -->
<!DOCTYPE svg PUBLIC "-//W3C//DTD SVG 1.1//EN" "http://www.w3.org/Graphics/SVG/1.1/DTD/svg11.dtd">
<svg version="1.1" id="Layer_1" xmlns="http://www.w3.org/2000/svg" xmlns:xlink="http://www.w3.org/1999/xlink" x="0px" y="0px"
	 width="792px" height="300px" viewBox="0 0 792 300" enable-background="new 0 0 792 300" xml:space="preserve">
<g enable-background="new    ">
	<path fill="#FFFFFF" d="M122.111,95.468c0,6.878-2.293,12.61-6.878,17.195c-4.587,4.587-10.317,6.878-17.195,6.878H92.97v80.906
		c0,6.879-2.263,12.58-6.788,17.104c-4.525,4.525-10.227,6.788-17.104,6.788s-12.611-2.263-17.195-6.788
		c-4.587-4.524-6.878-10.226-6.878-17.104v-80.906h-4.163c-6.878,0-12.611-2.291-17.195-6.878
		c-4.587-4.585-6.878-10.317-6.878-17.195c0-3.137,0.543-6.154,1.629-9.05c-1.086-2.896-1.629-5.911-1.629-9.05
		c0-6.879,2.291-12.58,6.878-17.104c4.584-4.525,10.317-6.788,17.195-6.788h57.196c6.878,0,12.608,2.263,17.195,6.788
		c4.584,4.524,6.878,10.226,6.878,17.104c0,3.258-0.543,6.275-1.629,9.05C121.568,89.313,122.111,92.331,122.111,95.468z
		 M110.346,77.368c0-3.62-1.148-6.545-3.439-8.779c-2.294-2.231-5.249-3.349-8.869-3.349H40.842c-3.62,0-6.579,1.117-8.869,3.349
		c-2.294,2.234-3.439,5.159-3.439,8.779c0,3.619,1.145,6.578,3.439,8.868c2.291,2.294,5.249,3.439,8.869,3.439H56.77v92.672
		c0,3.62,1.146,6.547,3.439,8.778c2.291,2.231,5.249,3.349,8.869,3.349s6.544-1.117,8.778-3.349
		c2.231-2.231,3.349-5.158,3.349-8.778V89.676h16.833c3.62,0,6.575-1.146,8.869-3.439C109.198,83.946,110.346,80.987,110.346,77.368
		z"/>
	<path fill="#FFFFFF" d="M231.073,166.601c0,16.29-5.611,30.046-16.833,41.269c-11.222,11.222-24.978,16.833-41.268,16.833
		c-16.412,0-30.167-5.583-41.268-16.743c-11.103-11.162-16.652-24.946-16.652-41.358c0-3.015,0.24-6.032,0.724-9.05
		c-0.484-3.015-0.724-6.032-0.724-9.05c0-16.409,5.549-30.165,16.652-41.269c11.101-11.101,24.856-16.651,41.268-16.651
		c16.409,0,30.196,5.551,41.358,16.651c11.16,11.104,16.743,24.859,16.743,41.269c0,3.139-0.243,6.216-0.724,9.23
		C230.83,160.628,231.073,163.586,231.073,166.601z M219.308,148.501c0-13.151-4.435-24.133-13.303-32.942
		c-8.869-8.807-19.882-13.213-33.033-13.213c-13.153,0-24.135,4.406-32.942,13.213c-8.81,8.81-13.213,19.791-13.213,32.942
		c0,13.153,4.403,24.163,13.213,33.032c8.807,8.869,19.789,13.304,32.942,13.304c13.151,0,24.164-4.435,33.033-13.304
		C214.873,172.664,219.308,161.654,219.308,148.501z M194.873,148.501c0,6.035-2.144,11.193-6.425,15.476
		c-4.285,4.284-9.443,6.425-15.476,6.425c-6.035,0-11.163-2.141-15.385-6.425c-4.226-4.282-6.335-9.44-6.335-15.476
		c0-6.032,2.109-11.16,6.335-15.386c4.222-4.222,9.35-6.335,15.385-6.335c6.032,0,11.191,2.113,15.476,6.335
		C192.729,137.341,194.873,142.469,194.873,148.501z"/>
	<path fill="#FFFFFF" d="M353.609,240.268c0,6.878-2.325,12.58-6.969,17.104c-4.646,4.525-10.348,6.788-17.104,6.788
		c-14.602,0-26.85-4.828-36.743-14.48c-9.896-9.655-14.842-21.782-14.842-36.381v-8.507l-0.181-45.432
		c0-1.81-0.905-2.715-2.715-2.715c-1.932,0-2.896,0.905-2.896,2.715v41.087c0,6.879-2.293,12.58-6.878,17.104
		c-4.587,4.525-10.317,6.788-17.195,6.788s-12.58-2.263-17.104-6.788c-4.525-4.524-6.788-10.226-6.788-17.104v-59.187
		c0-14.237,4.915-26.245,14.751-36.019c9.833-9.774,21.87-14.661,36.109-14.661c14.237,0,26.273,4.887,36.11,14.661
		c9.833,9.773,14.751,21.781,14.751,36.019v53.938c0,1.93,0.964,2.896,2.896,2.896c7.118,0,13.032,2.263,17.738,6.787
		c4.706,4.525,7.059,10.286,7.059,17.286c0,3.258-0.543,6.272-1.629,9.05C353.066,233.992,353.609,237.01,353.609,240.268z
		 M341.844,222.168c0-3.62-1.148-6.578-3.439-8.869c-2.293-2.294-5.249-3.439-8.869-3.439h-0.724c-4.104,0-7.574-1.419-10.408-4.253
		c-2.836-2.837-4.253-6.307-4.253-10.408v-53.938c0-11.101-3.742-20.362-11.222-27.783c-7.483-7.421-16.773-11.132-27.874-11.132
		c-11.103,0-20.394,3.711-27.874,11.132c-7.483,7.421-11.222,16.683-11.222,27.783v41.087c0,3.62,1.114,6.547,3.348,8.778
		c2.231,2.231,5.159,3.349,8.779,3.349s6.575-1.117,8.869-3.349c2.291-2.231,3.439-5.158,3.439-8.778v-41.087
		c0-4.101,1.417-7.54,4.253-10.317c2.833-2.774,6.304-4.163,10.407-4.163c3.982,0,7.39,1.42,10.227,4.254
		c2.834,2.837,4.253,6.244,4.253,10.227l0.181,53.938c0,11.223,3.71,20.544,11.131,27.965c7.421,7.421,16.743,11.132,27.965,11.132
		h0.724c3.62,0,6.576-1.117,8.869-3.349C340.696,228.712,341.844,225.788,341.844,222.168z"/>
	<path fill="#FFFFFF" d="M435.602,200.447c0,6.879-2.324,12.58-6.969,17.104c-4.646,4.525-10.348,6.788-17.104,6.788
		c-6.759,0-12.37-2.172-16.833-6.517c-4.587,4.585-10.317,6.879-17.195,6.879c-16.412,0-30.167-5.583-41.268-16.743
		c-11.103-11.162-16.652-24.946-16.652-41.358c0-3.015,0.24-6.032,0.724-9.05c-0.484-3.015-0.724-6.032-0.724-9.05
		c0-16.409,5.549-30.165,16.652-41.269c11.101-11.101,24.856-16.651,41.268-16.651c16.409,0,30.195,5.582,41.359,16.742
		c11.16,11.162,16.742,24.888,16.742,41.178V200.447z M423.836,182.348v-33.847c0-13.151-4.434-24.133-13.303-32.942
		c-8.869-8.807-19.882-13.213-33.033-13.213c-13.153,0-24.135,4.406-32.942,13.213c-8.81,8.81-13.213,19.791-13.213,32.942
		c0,13.153,4.403,24.163,13.213,33.032c8.807,8.869,19.789,13.304,32.942,13.304c3.62,0,6.576-1.148,8.869-3.439
		c2.291-2.291,3.439-5.249,3.439-8.869c0-3.619-1.148-6.544-3.439-8.778c-2.293-2.231-5.249-3.349-8.869-3.349
		c-6.035,0-11.163-2.141-15.385-6.425c-4.226-4.282-6.335-9.44-6.335-15.476c0-6.032,2.109-11.16,6.335-15.386
		c4.222-4.222,9.35-6.335,15.385-6.335c6.032,0,11.191,2.113,15.476,6.335c4.282,4.226,6.425,9.354,6.425,15.386v33.847
		c0,3.62,1.115,6.547,3.35,8.778c2.23,2.231,5.158,3.349,8.778,3.349s6.575-1.117,8.87-3.349
		C422.688,188.895,423.836,185.968,423.836,182.348z M384.921,159.723c-2.053-2.051-4.525-3.077-7.421-3.077
		c-1.569,0-3.018,0.303-4.344,0.905c1.205,0.605,3.077,1.026,5.611,1.267C381.782,159.061,383.835,159.36,384.921,159.723z"/>
	<path fill="#FFFFFF" d="M477.773,200.447c0,6.879-2.324,12.58-6.969,17.104c-4.646,4.525-10.348,6.788-17.105,6.788
		c-6.877,0-12.578-2.263-17.104-6.788c-4.525-4.524-6.787-10.226-6.787-17.104V77.729c0-6.878,2.262-12.579,6.787-17.104
		c4.525-4.524,10.227-6.787,17.104-6.787c7.359,0,13.215,2.144,17.559,6.426c4.344,4.284,6.516,10.107,6.516,17.466V200.447z
		 M466.008,182.348V77.729c0-8.083-4.104-12.127-12.309-12.127c-3.619,0-6.547,1.117-8.777,3.349
		c-2.234,2.234-3.35,5.158-3.35,8.778v104.618c0,3.62,1.115,6.547,3.35,8.778c2.23,2.231,5.158,3.349,8.777,3.349
		c3.621,0,6.576-1.117,8.869-3.349C464.859,188.895,466.008,185.968,466.008,182.348z"/>
	<path fill="#FFFFFF" d="M600.852,240.268c0,6.878-2.264,12.58-6.789,17.104c-4.523,4.525-10.227,6.788-17.104,6.788
		c-14.602,0-26.85-4.859-36.744-14.571c-9.895-9.714-14.842-21.811-14.842-36.29l-0.18-53.938c0-1.81-0.906-2.715-2.715-2.715
		c-1.932,0-2.896,0.905-2.896,2.715v41.087c0,6.879-2.293,12.58-6.879,17.104c-4.586,4.525-10.316,6.788-17.195,6.788
		c-6.877,0-12.578-2.263-17.104-6.788c-4.525-4.524-6.787-10.226-6.787-17.104V77.368c0-6.879,2.262-12.58,6.787-17.104
		c4.525-4.525,10.227-6.788,17.104-6.788c6.879,0,12.609,2.263,17.195,6.788c4.586,4.524,6.879,10.226,6.879,17.104v13.213
		c0.965,0,1.928,0,2.896,0c14.236,0,26.273,4.887,36.109,14.661c9.832,9.773,14.75,21.781,14.75,36.019v53.938
		c0,1.93,0.965,2.896,2.896,2.896c7.119,0,13.002,2.263,17.648,6.787c4.643,4.525,6.969,10.286,6.969,17.286
		c0,3.258-0.543,6.272-1.629,9.05C600.309,233.992,600.852,237.01,600.852,240.268z M589.086,222.168c0-3.62-1.117-6.578-3.35-8.869
		c-2.232-2.294-5.158-3.439-8.777-3.439h-0.725c-4.104,0-7.574-1.419-10.406-4.253c-2.838-2.837-4.254-6.307-4.254-10.408v-53.938
		c0-11.101-3.742-20.362-11.223-27.783c-7.482-7.421-16.773-11.132-27.873-11.132c-5.189,0-10.078,0.905-14.662,2.715V77.368
		c0-3.62-1.148-6.545-3.439-8.779c-2.293-2.231-5.248-3.349-8.869-3.349c-3.619,0-6.547,1.117-8.777,3.349
		c-2.234,2.234-3.35,5.159-3.35,8.779v104.979c0,3.62,1.115,6.547,3.35,8.778c2.23,2.231,5.158,3.349,8.777,3.349
		c3.621,0,6.576-1.117,8.869-3.349c2.291-2.231,3.439-5.158,3.439-8.778v-41.087c0-4.101,1.418-7.54,4.254-10.317
		c2.834-2.774,6.305-4.163,10.408-4.163c3.98,0,7.389,1.42,10.227,4.254c2.832,2.837,4.252,6.244,4.252,10.227l0.182,53.938
		c0,11.101,3.738,20.392,11.223,27.874c7.48,7.48,16.77,11.223,27.873,11.223h0.725c3.619,0,6.545-1.117,8.777-3.349
		C587.969,228.712,589.086,225.788,589.086,222.168z"/>
	<path fill="#FFFFFF" d="M668.543,173.479c0,14.24-4.887,26.273-14.66,36.109c-9.773,9.834-21.783,14.752-36.02,14.752
		c-14.361,0-26.426-4.887-36.199-14.661c-9.775-9.774-14.662-21.839-14.662-36.2v-58.644c0-6.878,2.264-12.608,6.787-17.195
		c4.525-4.584,10.227-6.878,17.105-6.878c6.877,0,12.607,2.294,17.195,6.878c4.584,4.587,6.877,10.317,6.877,17.195v40.544
		c0,1.932,0.965,2.896,2.896,2.896c1.811,0,2.715-0.964,2.715-2.896v-40.906c0-6.878,2.291-12.579,6.879-17.104
		c4.584-4.525,10.316-6.787,17.195-6.787c6.877,0,12.578,2.262,17.104,6.787s6.787,10.227,6.787,17.104V173.479z M656.779,155.379
		v-40.906c0-3.62-1.117-6.544-3.35-8.778c-2.234-2.231-5.158-3.349-8.777-3.349c-3.621,0-6.58,1.117-8.869,3.349
		c-2.295,2.234-3.439,5.158-3.439,8.778v40.906c0,4.104-1.389,7.573-4.164,10.407c-2.777,2.837-6.215,4.254-10.316,4.254
		c-4.104,0-7.574-1.417-10.408-4.254c-2.836-2.834-4.252-6.304-4.252-10.407v-40.544c0-3.62-1.148-6.575-3.439-8.869
		c-2.293-2.291-5.25-3.439-8.869-3.439s-6.547,1.148-8.779,3.439c-2.234,2.294-3.348,5.249-3.348,8.869v40.544
		c0,11.222,3.711,20.543,11.131,27.964c7.422,7.422,16.742,11.132,27.965,11.132c11.1,0,20.363-3.738,27.783-11.222
		C653.068,175.772,656.779,166.481,656.779,155.379z"/>
	<path fill="#FFFFFF" d="M778.771,166.42c0,16.171-5.643,29.865-16.924,41.087c-11.285,11.222-25.01,16.833-41.178,16.833
		c-16.291,0-30.018-5.583-41.178-16.742c-11.162-11.163-16.742-24.888-16.742-41.178V77.368c0-6.757,2.291-12.427,6.877-17.015
		c4.584-4.584,10.256-6.878,17.014-6.878c6.879,0,12.609,2.263,17.195,6.788c4.586,4.524,6.879,10.226,6.879,17.104V92.21
		c3.137-1.326,6.453-1.991,9.955-1.991c16.408,0,30.195,5.583,41.357,16.742c11.16,11.163,16.744,24.95,16.744,41.358
		c0,3.14-0.244,6.154-0.725,9.051C778.527,160.388,778.771,163.405,778.771,166.42z M767.006,148.319
		c0-13.15-4.436-24.163-13.305-33.032c-8.867-8.869-19.881-13.304-33.031-13.304c-3.621,0-6.547,1.148-8.779,3.439
		c-2.234,2.294-3.348,5.249-3.348,8.869s1.113,6.547,3.348,8.778c2.232,2.234,5.158,3.349,8.779,3.349
		c6.031,0,11.191,2.144,15.475,6.425c4.283,4.285,6.426,9.443,6.426,15.476c0,6.035-2.143,11.163-6.426,15.386
		c-4.283,4.225-9.443,6.335-15.475,6.335c-6.035,0-11.162-2.11-15.385-6.335c-4.227-4.223-6.336-9.351-6.336-15.386V77.368
		c0-3.62-1.148-6.545-3.439-8.779c-2.293-2.231-5.248-3.349-8.869-3.349c-3.5,0-6.396,1.148-8.688,3.439
		c-2.293,2.294-3.439,5.189-3.439,8.688v70.951c0,13.032,4.436,23.982,13.305,32.852s19.818,13.304,32.852,13.304
		c13.031,0,24.01-4.435,32.941-13.304C762.539,172.302,767.006,161.352,767.006,148.319z M725.195,157.37
		c-1.33-0.603-3.26-1.024-5.793-1.268c-2.896-0.24-4.887-0.543-5.973-0.905c1.928,2.054,4.344,3.077,7.24,3.077
		C722.236,158.274,723.746,157.975,725.195,157.37z"/>
</g>
</svg>
