<?xml version="1.0" encoding="utf-8"?>
<!-- Generator: Adobe Illustrator 16.0.3, SVG Export Plug-In . SVG Version: 6.00 Build 0)  -->
<!DOCTYPE svg PUBLIC "-//W3C//DTD SVG 1.1//EN" "http://www.w3.org/Graphics/SVG/1.1/DTD/svg11.dtd">
<svg version="1.1" id="Layer_1" xmlns="http://www.w3.org/2000/svg" xmlns:xlink="http://www.w3.org/1999/xlink" x="0px" y="0px"
	 width="719.367px" height="131.966px" viewBox="1.572 31.323 719.367 131.966"
	 enable-background="new 1.572 31.323 719.367 131.966" xml:space="preserve">
<g>
	<g>
		<rect x="1.572" y="83.242" fill="none" width="537.741" height="80.047"/>
		<path fill="#FFFFFF" d="M67.757,106.428c0,6.324-3.025,12.374-8.433,16.682c-5.316,4.31-12.741,6.509-21.357,6.601h-12.74v30.34
			c0,1.009-0.733,1.833-1.741,1.833H12.761c-1.008,0-1.833-0.824-1.833-1.833V115.32h14.116L10.928,92.312v-7.333
			c0-1.008,0.825-1.833,1.833-1.833h25.023c8.708,0,16.132,2.292,21.54,6.6C64.732,93.962,67.757,100.012,67.757,106.428z
			 M41.634,115.136c7.791-1.009,11.824-4.858,11.824-8.708c0-4.49-5.408-8.983-15.674-8.983H30.91L41.634,115.136z"/>
		<path fill="#FFFFFF" d="M101.941,97.354v50.138h12.007c1.283,0,2.292,0.824,2.292,1.833v10.725c0,1.009-1.008,1.833-2.292,1.833
			H75.085c-1.008,0-1.833-0.824-1.833-1.833v-10.725c0-1.009,0.825-1.833,1.833-1.833h12.466V97.354H75.085
			c-1.008,0-1.833-0.733-1.833-1.742V84.888c0-1.008,0.825-1.833,1.833-1.833h38.864c1.283,0,2.292,0.825,2.292,1.833v10.724
			c0,1.008-1.008,1.742-2.292,1.742H101.941z"/>
		<path fill="#FFFFFF" d="M170.224,95.612c0,1.191-0.275,2.292-0.825,3.392l-25.94,48.58h24.565c1.191,0,2.2,0.732,2.2,1.741v10.725
			c0,1.009-1.008,1.833-2.2,1.833h-38.956c-1.008,0-1.833-0.824-1.833-1.833V149.6c0-1.283,0.275-2.475,0.825-3.666L154,97.445
			h-24.932c-1.008,0-1.833-0.825-1.833-1.833V84.888c0-1.008,0.825-1.833,1.833-1.833h38.956c1.191,0,2.2,0.825,2.2,1.833V95.612
			L170.224,95.612z"/>
		<path fill="#FFFFFF" d="M224.207,95.612c0,1.191-0.275,2.292-0.825,3.392l-25.94,48.58h24.565c1.191,0,2.2,0.732,2.2,1.741v10.725
			c0,1.009-1.008,1.833-2.2,1.833h-38.956c-1.008,0-1.833-0.824-1.833-1.833V149.6c0-1.283,0.275-2.475,0.825-3.666l25.939-48.489
			H183.05c-1.008,0-1.833-0.825-1.833-1.833V84.888c0-1.008,0.825-1.833,1.833-1.833h38.956c1.191,0,2.2,0.825,2.2,1.833
			L224.207,95.612L224.207,95.612z"/>
		<path fill="#FFFFFF" d="M263.892,97.354v50.138h12.007c1.283,0,2.292,0.824,2.292,1.833v10.725c0,1.009-1.008,1.833-2.292,1.833
			h-38.864c-1.008,0-1.833-0.824-1.833-1.833v-10.725c0-1.009,0.825-1.833,1.833-1.833h12.466V97.354h-12.466
			c-1.008,0-1.833-0.733-1.833-1.742V84.888c0-1.008,0.825-1.833,1.833-1.833h38.864c1.283,0,2.292,0.825,2.292,1.833v10.724
			c0,1.008-1.008,1.742-2.292,1.742H263.892z"/>
		<path fill="#FFFFFF" d="M291.204,147.949c-14.115-16.59-12.099-41.613,4.583-55.729c14.023-11.916,34.098-12.282,48.488-2.016
			l0.274,0.183l0.184,0.184c0.732,0.825,0.642,2.016-0.093,2.658l-8.615,7.241c-0.551,0.458-1.283,0.549-2.018,0.184
			c-8.891-5.225-20.624-4.492-28.964,2.566c-10.541,8.981-11.824,24.84-2.841,35.471c8.341,9.809,22.73,11.643,33.181,4.584
			c0,0,0.092,0,0.092-0.092c0.733-0.459,1.833-0.274,2.384,0.459l6.875,8.156c0.732,0.733,0.642,1.926-0.093,2.566
			c-0.091,0-0.091,0-0.091,0.092h-0.092v0.092c-2.2,1.559-4.491,2.842-6.875,3.941C321.91,165.456,302.845,161.698,291.204,147.949z
			"/>
		<path fill="#FFFFFF" d="M404.95,142.175c0,1.009-0.824,1.741-1.833,1.741h-2.476l3.851,15.309l0.092,0.457v0.185
			c0,1.1-0.733,1.925-1.741,1.925h-11.091c-0.733,0-1.375-0.55-1.65-1.283l-0.092-0.275l-4.033-16.314h-15.673l-4.032,16.407
			c0,0-0.093,0.092-0.093,0.184c-0.184,0.733-0.917,1.283-1.649,1.283h-11.091c-0.917,0-1.742-0.825-1.742-1.925v-0.366
			c0.092,0,0.092-0.092,0.092-0.185l18.605-74.335l0.093-0.55c0.274-0.642,0.917-1.1,1.649-1.1h12.007c0.733,0,1.375,0.458,1.65,1.1
			l0.092,0.458l11.183,44.821h6.05c1.009,0,1.833,0.733,1.833,1.742V142.175z M382.402,129.709l-4.218-16.957l-4.308,16.957H382.402
			z"/>
		<path fill="#FFFFFF" d="M460.035,95.612c0,1.008-1.009,1.833-2.2,1.833h-17.507v62.237c0,1.191-0.825,2.2-1.741,2.2h-10.815
			c-0.916,0-1.741-1.009-1.741-2.2V97.445h-17.874c-1.008,0-1.833-0.825-1.833-1.833V84.888c0-1.008,0.825-1.742,1.833-1.742h49.68
			c1.191,0,2.2,0.733,2.2,1.742L460.035,95.612L460.035,95.612z"/>
		<path fill="#FFFFFF" d="M496.696,161.975c-21.725,0-39.414-17.69-39.414-39.414s17.689-39.415,39.414-39.415
			c21.723,0,39.413,17.69,39.413,39.415C536.109,144.283,518.419,161.975,496.696,161.975z M496.696,97.445
			c-13.841,0-25.115,11.274-25.115,25.116c0,13.84,11.274,25.022,25.115,25.022c13.84,0,25.021-11.183,25.021-25.022
			C521.718,108.72,510.536,97.445,496.696,97.445z"/>
	</g>
	<g>
		<circle fill="#FFFFFF" cx="579.15" cy="133.703" r="29.583"/>
		<path fill="#FFFFFF" d="M585.918,107.32c0,2.416-3.03,4.375-6.767,4.375l0,0c-3.738,0-6.765-1.959-6.765-4.375V35.697
			c0-2.415,3.025-4.374,6.765-4.374l0,0c3.735,0,6.767,1.958,6.767,4.374V107.32z"/>
	</g>
	<g>
		<rect x="611.215" y="83.241" fill="none" width="109.724" height="80.048"/>
		<path fill="#FFFFFF" d="M654.399,137.316c0,3.758-0.733,7.24-2.199,10.356c-1.467,3.208-3.759,6.05-6.691,8.341
			c-4.491,3.574-10.266,5.592-16.499,5.866c-0.824-0.092-1.466-0.825-1.466-1.741v-10.725c0-0.825,0.642-1.648,1.466-1.833
			l0.367-0.092c3.574-0.367,10.724-2.2,10.724-10.175V97.444h-10.724c-1.009,0-1.833-0.733-1.833-1.741V84.979
			c0-1.008,0.824-1.833,1.833-1.833H652.2c0.916,0,1.833,0.55,2.107,1.283v0.092c0.092,0.092,0.092,0.184,0.092,0.367V137.316z"/>
		<path fill="#FFFFFF" d="M717.275,138.782c0,0.642-0.093,6.142-3.575,11.731c-3.208,5.316-9.809,11.551-23.281,11.551
			c-10.633,0-18.974-4.492-23.465-12.467c-2.108-3.85-2.933-7.607-3.208-9.99c0-0.185-0.092-0.366-0.092-0.551
			c0-0.916,0.732-1.74,1.649-1.832h11.273c0.732,0.092,1.283,0.549,1.467,1.282v0.093c0,0.09,0.092,0.183,0.092,0.273
			c0.185,1.1,0.643,2.658,1.56,4.033c1.925,3.208,5.499,4.857,10.724,4.857c5.592,0,9.166-1.559,11.091-4.675
			c1.283-2.108,1.467-4.399,1.467-4.399c0-2.566-0.642-5.592-5.407-7.517c-3.482-1.467-7.149-1.559-7.149-1.559
			c-0.642,0-6.508-0.091-12.558-2.476c-9.257-3.758-14.3-11.091-14.3-20.715c0-0.917,0.185-9.441,6.875-16.132
			c4.768-4.858,11.55-7.333,19.981-7.333c5.408,0,13.199,1.191,19.157,7.241c5.773,5.866,7.241,13.291,7.606,16.957v0.184
			c0,1.101-0.732,1.925-1.74,1.925h-11.092c-0.732-0.092-1.375-0.732-1.559-1.467v-0.275c-0.274-1.282-0.733-3.115-1.649-4.948
			c-1.282-2.292-3.759-5.316-10.725-5.316c-4.491,0-7.791,1.008-9.899,3.116c-2.475,2.475-2.657,6.05-2.657,6.05
			c0,2.566,0.642,5.499,5.407,7.425c3.483,1.375,7.149,1.467,7.149,1.467c0.642,0,6.508,0.092,12.558,2.565
			C712.234,121.732,717.275,129.158,717.275,138.782z"/>
	</g>
</g>
</svg>
